<mxfile host="app.diagrams.net" agent="Mozilla/5.0 (Windows NT 10.0; Win64; x64) AppleWebKit/537.36 (KHTML, like Gecko) Chrome/132.0.0.0 Safari/537.36" version="26.0.14">
  <diagram name="Page-1" id="cQfFuEuM9Dd1aU2YPaY8">
    <mxGraphModel dx="665" dy="595" grid="1" gridSize="10" guides="1" tooltips="1" connect="1" arrows="1" fold="1" page="1" pageScale="1" pageWidth="827" pageHeight="1169" math="0" shadow="0">
      <root>
        <mxCell id="0" />
        <mxCell id="1" parent="0" />
        <mxCell id="WjQP4m5-syQWJHnDS2zD-1" value="Generador de energia 2" style="rounded=0;whiteSpace=wrap;html=1;labelBackgroundColor=none;fillColor=#FAE5C7;strokeColor=#0F8B8D;fontColor=#143642;" vertex="1" parent="1">
          <mxGeometry x="260" y="200" width="120" height="60" as="geometry" />
        </mxCell>
        <mxCell id="WjQP4m5-syQWJHnDS2zD-3" value="Generador de energia 1" style="rounded=0;whiteSpace=wrap;html=1;labelBackgroundColor=none;fillColor=#FAE5C7;strokeColor=#0F8B8D;fontColor=#143642;" vertex="1" parent="1">
          <mxGeometry x="50" y="200" width="120" height="60" as="geometry" />
        </mxCell>
        <mxCell id="WjQP4m5-syQWJHnDS2zD-4" value="Generador de energia N" style="rounded=0;whiteSpace=wrap;html=1;labelBackgroundColor=none;fillColor=#FAE5C7;strokeColor=#0F8B8D;fontColor=#143642;" vertex="1" parent="1">
          <mxGeometry x="480" y="200" width="120" height="60" as="geometry" />
        </mxCell>
        <mxCell id="WjQP4m5-syQWJHnDS2zD-5" value="Red Operadora" style="rounded=1;whiteSpace=wrap;html=1;strokeColor=#0F8B8D;fontColor=#143642;fillColor=#FAE5C7;" vertex="1" parent="1">
          <mxGeometry x="270" y="380" width="120" height="60" as="geometry" />
        </mxCell>
        <mxCell id="WjQP4m5-syQWJHnDS2zD-6" value="" style="endArrow=classic;html=1;rounded=0;strokeColor=#d6b656;fontColor=#143642;fillColor=#fff2cc;exitX=0.75;exitY=1;exitDx=0;exitDy=0;entryX=0;entryY=0;entryDx=0;entryDy=0;" edge="1" parent="1" source="WjQP4m5-syQWJHnDS2zD-3" target="WjQP4m5-syQWJHnDS2zD-5">
          <mxGeometry width="50" height="50" relative="1" as="geometry">
            <mxPoint x="290" y="330" as="sourcePoint" />
            <mxPoint x="340" y="280" as="targetPoint" />
          </mxGeometry>
        </mxCell>
        <mxCell id="WjQP4m5-syQWJHnDS2zD-7" value="Oferta" style="edgeLabel;html=1;align=center;verticalAlign=middle;resizable=0;points=[];strokeColor=#0F8B8D;fontColor=#143642;fillColor=#FAE5C7;" vertex="1" connectable="0" parent="WjQP4m5-syQWJHnDS2zD-6">
          <mxGeometry x="0.4147" y="4" relative="1" as="geometry">
            <mxPoint y="-11" as="offset" />
          </mxGeometry>
        </mxCell>
        <mxCell id="WjQP4m5-syQWJHnDS2zD-8" value="" style="endArrow=classic;html=1;rounded=0;strokeColor=#b85450;fontColor=#143642;fillColor=#f8cecc;exitX=0;exitY=1;exitDx=0;exitDy=0;entryX=0.25;entryY=1;entryDx=0;entryDy=0;" edge="1" parent="1" source="WjQP4m5-syQWJHnDS2zD-5" target="WjQP4m5-syQWJHnDS2zD-3">
          <mxGeometry width="50" height="50" relative="1" as="geometry">
            <mxPoint x="290" y="330" as="sourcePoint" />
            <mxPoint x="340" y="280" as="targetPoint" />
          </mxGeometry>
        </mxCell>
        <mxCell id="WjQP4m5-syQWJHnDS2zD-9" value="Precio asignado" style="text;html=1;align=center;verticalAlign=middle;resizable=0;points=[];autosize=1;strokeColor=none;fillColor=none;fontColor=#143642;" vertex="1" parent="1">
          <mxGeometry x="110" y="370" width="110" height="30" as="geometry" />
        </mxCell>
        <mxCell id="WjQP4m5-syQWJHnDS2zD-11" value="" style="endArrow=classic;html=1;rounded=0;strokeColor=#b85450;fontColor=#143642;fillColor=#f8cecc;exitX=0.75;exitY=0;exitDx=0;exitDy=0;entryX=0.75;entryY=1;entryDx=0;entryDy=0;" edge="1" parent="1" source="WjQP4m5-syQWJHnDS2zD-5" target="WjQP4m5-syQWJHnDS2zD-1">
          <mxGeometry width="50" height="50" relative="1" as="geometry">
            <mxPoint x="280" y="450" as="sourcePoint" />
            <mxPoint x="120" y="270" as="targetPoint" />
          </mxGeometry>
        </mxCell>
        <mxCell id="WjQP4m5-syQWJHnDS2zD-12" value="" style="endArrow=classic;html=1;rounded=0;strokeColor=#b85450;fontColor=#143642;fillColor=#f8cecc;exitX=1;exitY=1;exitDx=0;exitDy=0;entryX=1;entryY=1;entryDx=0;entryDy=0;" edge="1" parent="1" source="WjQP4m5-syQWJHnDS2zD-5" target="WjQP4m5-syQWJHnDS2zD-4">
          <mxGeometry width="50" height="50" relative="1" as="geometry">
            <mxPoint x="290" y="460" as="sourcePoint" />
            <mxPoint x="130" y="280" as="targetPoint" />
          </mxGeometry>
        </mxCell>
        <mxCell id="WjQP4m5-syQWJHnDS2zD-13" value="Precio asignado" style="text;html=1;align=center;verticalAlign=middle;resizable=0;points=[];autosize=1;strokeColor=none;fillColor=none;fontColor=#143642;" vertex="1" parent="1">
          <mxGeometry x="340" y="270" width="110" height="30" as="geometry" />
        </mxCell>
        <mxCell id="WjQP4m5-syQWJHnDS2zD-14" value="Precio asignado" style="text;html=1;align=center;verticalAlign=middle;resizable=0;points=[];autosize=1;strokeColor=none;fillColor=none;fontColor=#143642;" vertex="1" parent="1">
          <mxGeometry x="490" y="330" width="110" height="30" as="geometry" />
        </mxCell>
        <mxCell id="WjQP4m5-syQWJHnDS2zD-15" value="" style="endArrow=classic;html=1;rounded=0;strokeColor=#d6b656;fontColor=#143642;fillColor=#fff2cc;exitX=0.25;exitY=1;exitDx=0;exitDy=0;entryX=0.25;entryY=0;entryDx=0;entryDy=0;" edge="1" parent="1" source="WjQP4m5-syQWJHnDS2zD-1" target="WjQP4m5-syQWJHnDS2zD-5">
          <mxGeometry width="50" height="50" relative="1" as="geometry">
            <mxPoint x="180" y="270" as="sourcePoint" />
            <mxPoint x="280" y="390" as="targetPoint" />
          </mxGeometry>
        </mxCell>
        <mxCell id="WjQP4m5-syQWJHnDS2zD-16" value="Oferta" style="edgeLabel;html=1;align=center;verticalAlign=middle;resizable=0;points=[];strokeColor=#0F8B8D;fontColor=#143642;fillColor=#FAE5C7;" vertex="1" connectable="0" parent="WjQP4m5-syQWJHnDS2zD-15">
          <mxGeometry x="0.4147" y="4" relative="1" as="geometry">
            <mxPoint y="-11" as="offset" />
          </mxGeometry>
        </mxCell>
        <mxCell id="WjQP4m5-syQWJHnDS2zD-17" value="" style="endArrow=classic;html=1;rounded=0;strokeColor=#d6b656;fontColor=#143642;fillColor=#fff2cc;exitX=0;exitY=1;exitDx=0;exitDy=0;entryX=1;entryY=0;entryDx=0;entryDy=0;" edge="1" parent="1" source="WjQP4m5-syQWJHnDS2zD-4" target="WjQP4m5-syQWJHnDS2zD-5">
          <mxGeometry width="50" height="50" relative="1" as="geometry">
            <mxPoint x="190" y="280" as="sourcePoint" />
            <mxPoint x="290" y="400" as="targetPoint" />
          </mxGeometry>
        </mxCell>
        <mxCell id="WjQP4m5-syQWJHnDS2zD-18" value="Oferta" style="edgeLabel;html=1;align=center;verticalAlign=middle;resizable=0;points=[];strokeColor=#0F8B8D;fontColor=#143642;fillColor=#FAE5C7;" vertex="1" connectable="0" parent="WjQP4m5-syQWJHnDS2zD-17">
          <mxGeometry x="0.4147" y="4" relative="1" as="geometry">
            <mxPoint y="-11" as="offset" />
          </mxGeometry>
        </mxCell>
      </root>
    </mxGraphModel>
  </diagram>
</mxfile>
